<svg width="2597" height="323" viewBox="0 0 2597 323" fill="none" xmlns="http://www.w3.org/2000/svg">
<g clip-path="url(#clip0_2063_10)">
<path d="M2227.51 30.93L2323.95 30.491C2323.95 30.491 2326.08 90.768 2326.08 109.243C2326.08 109.243 2326.13 115.028 2365.39 75.471L2494.31 70.978C2494.31 70.978 2582.5 51.375 2596.21 39.221C2596.21 39.221 2509.13 111.346 2430.82 107.805L2379.9 126.425L2424.97 125.825L2489.28 211.421L2395.88 210.821L2361.66 164.376C2361.66 164.376 2340.8 163.68 2326.08 164.376V210.821C2326.08 210.821 2252.45 211.689 2227.51 210.769L2227.51 30.93ZM2370.25 64.03L2409.86 62.927C2409.86 62.927 2429.99 39.311 2404.22 25.708C2404.22 25.708 2392.72 20.444 2372.03 25.594C2372.03 25.594 2386 26.116 2385.26 32.358C2385.26 32.358 2384.03 38.689 2381.19 45.122C2378.91 50.292 2377.62 52.84 2376 55.424L2370.25 64.029L2370.25 64.03ZM116.629 210.82H288.229V139.23H120.12V117.513H288.229V39.22H104.841C40.761 39.22 0 60.67 0 125.288C0 191.248 44.24 210.82 116.629 210.82ZM317.684 210.82H411.253V155.855L439.144 210.82H587.414V161.218H426.545V155.855H435.384C558.725 155.855 592.245 144.057 592.245 100.89C592.245 54.235 569.185 39.22 498.135 39.22H317.684V210.82ZM414.203 124.753V101.425H483.654V124.753H414.203ZM694.076 210.82H790.866V167.115L890.617 39.22H774.787L744.757 89.36H740.197L710.167 39.22H594.337L694.077 167.115V210.82H694.076ZM908.529 210.82H1005.05V173.82H1087.9C1156.28 173.282 1178.26 155.855 1178.26 102.497C1178.26 56.914 1152.79 39.219 1087.9 39.219H908.529V210.819V210.82ZM1005.05 119.925V96.6H1069.13V119.925H1005.05ZM1273.13 210.82H1369.38V110.005H1453.57V39.22H1188.94V110.005H1273.13V210.82ZM1480.35 210.82H1577.41V39.22H1480.35V210.82ZM1750.85 216.183C1849.52 216.183 1896.98 186.42 1896.98 125.02C1896.98 64.693 1849.26 35.465 1750.85 35.465C1651.92 35.465 1604.19 64.693 1604.19 125.02C1604.19 186.42 1651.92 216.183 1750.85 216.183ZM1709.83 140.303V110.006H1790.81V140.303H1709.83ZM1923.74 210.82H2017.58V154.783H2024.82L2086.22 210.82H2197.23V39.22H2103.92V98.208H2096.68L2035.28 39.22H1923.74L1923.74 210.82ZM130.722 50.371H168.58V0H130.722V50.371ZM219.738 0V50.371H257.596V0H219.738ZM130.722 253.174H168.58V202.803H130.722V253.174ZM219.738 253.174H257.596V202.803H219.738V253.174Z" fill="url(#paint0_linear_2063_10)"/>
<path d="M2514.13 181.543V177.636H2541.41V181.543H2529.97V214H2525.57V181.543H2514.13ZM2548.2 177.636H2553.46L2565.82 207.821H2566.24L2578.6 177.636H2583.86V214H2579.74V186.372H2579.38L2568.02 214H2564.04L2552.68 186.372H2552.32V214H2548.2V177.636Z" fill="#843236"/>
</g>
<defs>
<linearGradient id="paint0_linear_2063_10" x1="18.7023" y1="-27.7096" x2="2562.04" y2="302.432" gradientUnits="userSpaceOnUse">
<stop stop-color="#7E242F"/>
<stop offset="0.216" stop-color="#D86E57"/>
<stop offset="0.476" stop-color="#FFA37F"/>
<stop offset="0.734" stop-color="#BA5C4D"/>
<stop offset="1" stop-color="#843236"/>
</linearGradient>
<clipPath id="clip0_2063_10">
<rect width="2596.21" height="322.304" fill="white"/>
</clipPath>
</defs>
</svg>
